<?xml version="1.0" standalone="no"?>
<!DOCTYPE svg PUBLIC "-//W3C//DTD SVG 20010904//EN"
 "http://www.w3.org/TR/2001/REC-SVG-20010904/DTD/svg10.dtd">
<svg version="1.0" xmlns="http://www.w3.org/2000/svg"
 width="621.000000pt" height="529.000000pt" viewBox="0 0 621.000000 529.000000"
 preserveAspectRatio="xMidYMid meet">

<g transform="translate(0.000000,529.000000) scale(0.100000,-0.100000)"
fill="#000000" stroke="none">
<path d="M2395 5159 c-39 -8 -147 -24 -232 -36 -24 -3 -43 -8 -43 -13 0 -4
-22 -10 -48 -14 -27 -3 -80 -17 -118 -30 -38 -12 -76 -25 -84 -27 -8 -2 -17
-6 -20 -9 -3 -3 -38 -16 -79 -30 -40 -13 -79 -29 -85 -36 -7 -6 -23 -15 -36
-19 -68 -21 -331 -169 -395 -222 -5 -5 -57 -44 -115 -88 -58 -44 -108 -85
-113 -92 -4 -7 -14 -18 -21 -26 -35 -34 -113 -330 -136 -517 -17 -129 -15
-401 3 -535 33 -242 111 -515 218 -765 l54 -125 3 143 c1 78 7 142 11 142 5 0
12 28 15 63 9 103 18 157 26 157 4 0 10 27 14 59 4 33 13 64 20 70 7 6 16 29
20 51 3 22 11 40 16 40 6 0 10 11 10 25 0 14 7 28 15 31 8 3 17 21 21 40 3 19
9 34 13 34 4 0 13 16 21 35 8 19 17 35 22 35 4 0 8 6 8 13 0 7 9 19 20 27 11
8 20 22 20 32 0 10 5 18 10 18 6 0 10 6 10 14 0 8 9 18 20 21 11 3 20 14 20
23 0 10 15 32 33 49 63 63 77 79 77 91 0 6 11 14 25 18 14 3 25 12 25 19 0 7
12 21 26 31 14 10 42 34 61 53 83 78 365 237 399 224 12 -4 15 -3 10 5 -5 8 1
12 18 12 14 0 26 4 26 8 0 7 43 21 163 53 20 5 42 7 48 3 6 -4 15 -1 19 6 21
34 443 38 585 5 93 -22 213 -60 250 -79 17 -9 34 -16 38 -16 8 0 120 -55 187
-92 120 -65 302 -219 407 -343 94 -112 144 -188 190 -287 10 -21 21 -38 25
-38 5 0 8 -7 8 -15 0 -8 4 -23 9 -33 9 -18 26 -58 44 -102 5 -14 13 -33 18
-42 5 -10 9 -25 9 -33 0 -8 4 -23 9 -33 13 -24 42 -180 53 -282 5 -47 13 -87
18 -88 6 -2 8 -8 5 -13 -4 -5 1 -6 9 -3 9 3 13 11 10 16 -4 6 4 5 16 -2 12 -7
20 -8 17 -2 -4 5 5 14 20 21 22 10 25 9 19 -4 -6 -17 6 -13 36 13 10 8 26 12
37 9 11 -3 26 1 32 9 9 12 15 12 27 2 13 -11 15 -10 10 3 -5 13 0 16 23 13 16
-2 29 1 29 7 0 6 9 9 20 6 11 -3 20 -1 20 3 0 9 62 25 92 23 10 0 15 3 13 8
-3 4 -1 10 4 14 5 3 14 -3 20 -12 10 -17 10 -17 11 -1 0 11 5 15 15 12 8 -4
15 -1 15 7 0 7 3 9 7 6 3 -4 14 0 24 9 13 12 19 12 25 3 4 -8 3 -10 -4 -5 -7
4 -12 2 -12 -3 0 -6 9 -11 20 -11 11 0 20 7 20 15 0 15 11 19 39 16 7 -2 10 2
6 8 -4 8 2 8 20 1 14 -5 24 -6 21 -1 -3 5 1 11 9 15 8 3 15 1 15 -5 0 -5 10
-1 22 11 16 15 24 17 30 8 6 -10 8 -9 8 2 0 12 2 12 9 2 7 -11 9 -11 14 0 3 8
-24 53 -59 101 -73 97 -296 350 -346 392 -18 15 -65 57 -104 94 -255 238 -661
473 -997 577 -39 12 -53 21 -45 26 8 6 -1 7 -22 4 -19 -3 -29 -3 -22 0 8 4 10
10 4 17 -6 7 -15 131 -20 277 -12 295 -13 404 -1 375 4 -11 7 40 6 112 -1 84
-6 132 -12 129 -5 -2 -19 5 -30 15 -12 10 -39 20 -60 21 -22 2 -43 6 -46 11
-10 13 -113 39 -199 48 -47 6 -99 14 -116 19 -37 12 -513 11 -569 -1z m1025
-179 c0 -5 -5 -10 -11 -10 -5 0 -7 5 -4 10 3 6 8 10 11 10 2 0 4 -4 4 -10z"/>
<path d="M4400 2759 c0 -5 5 -7 10 -4 6 3 10 8 10 11 0 2 -4 4 -10 4 -5 0 -10
-5 -10 -11z"/>
<path d="M4598 750 c-108 -13 -214 -37 -358 -82 l-134 -43 51 -11 c28 -6 56
-14 62 -18 6 -4 21 -9 33 -11 34 -7 78 -26 78 -35 0 -4 16 -11 35 -14 19 -4
47 -13 62 -21 15 -8 32 -15 37 -15 5 0 14 -7 20 -15 6 -8 22 -17 35 -20 13 -2
34 -11 48 -20 13 -9 27 -13 32 -11 5 3 30 -5 56 -19 27 -13 52 -22 56 -20 3 3
3 19 0 37 -5 24 -3 36 8 45 11 8 12 12 4 13 -7 0 -13 5 -13 11 0 5 4 8 9 5 5
-3 12 1 15 10 4 12 2 15 -9 10 -8 -3 -15 -1 -15 4 0 6 5 10 11 10 7 0 9 10 5
25 -4 14 -2 25 3 25 6 0 8 7 5 15 -4 8 -2 15 4 15 5 0 8 16 5 35 -2 19 1 35 5
35 5 0 8 13 6 29 -3 28 -1 30 39 34 23 2 4 4 -43 4 -47 0 -115 -3 -152 -7z"/>
</g>
</svg>
